<svg width="32" height="32" viewBox="0 0 32 32" fill="none" xmlns="http://www.w3.org/2000/svg">
<rect width="32" height="32" rx="8" fill="#0B435B"/>
<path fill-rule="evenodd" clip-rule="evenodd" d="M21.0016 7.72014C22.1511 7.22348 23.3834 6.95701 24.6315 6.93526L24.6424 6.93613C27.9927 6.85876 28.7913 8.56863 28.2892 10.073C27.7871 11.5775 26.3289 12.438 24.8126 13.0819C24.8126 13.0819 24.5835 13.1824 24.789 13.2375C24.789 13.2375 28.2479 13.8177 27.1081 17.1979C26.628 18.6224 24.9474 20.5738 22.2172 21.9355C21.3746 22.3661 20.4634 22.6398 19.5266 22.7436C19.129 22.7988 18.7255 22.7933 18.3295 22.7273C17.822 22.6528 17.3299 22.4937 16.873 22.2562C16.7273 22.1874 16.5959 22.1169 16.483 22.0542C15.0079 21.2237 14.2734 20.9701 13.3316 21.2805C12.8203 21.5088 12.3212 21.7644 11.8363 22.0464C10.491 22.7092 9.39167 22.3852 7.98233 21.6115C7.36353 21.1765 6.64122 20.9199 5.8915 20.8687C5.37948 20.8306 4.86548 20.9069 4.38529 21.0922C4.18957 21.1727 3.99981 21.2675 3.81751 21.3759L3.73328 21.2573C3.73328 21.2573 4.1966 20.8094 4.44173 20.6013C5.10752 19.9485 5.94586 19.5087 6.85352 19.3359C7.89644 19.2522 8.93775 19.5169 9.82045 20.0898C10.4998 20.5236 11.2762 20.7736 12.0764 20.8163C12.4396 20.8261 12.801 20.7618 13.1395 20.6271C13.4846 20.497 13.7331 20.3636 13.9671 20.238C14.1335 20.1487 14.2925 20.0633 14.4739 19.9858C14.9528 19.7617 15.4773 19.6574 16.0036 19.6815C16.6548 18.2046 17.6876 15.8534 18.5224 13.8968C19.4103 11.8182 20.4928 9.51168 20.9822 8.49298C21.0075 8.43796 21.0353 8.34855 20.9233 8.36746C20.6916 8.40873 20.2283 8.51877 20.075 8.55917C19.9065 8.60388 19.8888 8.53682 19.9242 8.46461C20.0098 8.32236 20.1248 8.2009 20.2611 8.10871C20.4952 7.95528 20.7431 7.82516 21.0016 7.72014ZM23.4631 12.9641C25.163 12.0692 25.7982 11.145 25.9903 10.2811L25.9945 10.2699C26.2026 9.3492 25.9364 8.21359 23.9281 8.11129C23.7985 8.09892 23.6682 8.09519 23.5381 8.10011C23.5062 8.09889 23.4746 8.10618 23.4464 8.12126C23.4182 8.13634 23.3943 8.15868 23.3772 8.18607C22.8692 9.31567 21.6536 12.0219 20.6469 14.3757C19.4019 17.2882 18.498 19.4365 18.1012 20.4053C18.2137 20.4681 18.3163 20.5276 18.407 20.5802C18.5472 20.6615 18.659 20.7263 18.7347 20.7612C19.7113 21.2713 20.8426 21.3787 21.8945 21.0613C22.1963 20.9283 22.486 20.7686 22.7605 20.5841C23.9308 19.6822 24.7037 18.3443 24.9103 16.8627C25.3147 14.0206 22.4101 13.9527 22.0731 13.9665C22.0381 13.968 22.0054 13.9703 21.9754 13.9725C21.8545 13.9812 21.7783 13.9867 21.7783 13.9226C21.7896 13.8221 21.8303 13.7273 21.895 13.6507C21.9598 13.574 22.0456 13.519 22.1414 13.4928C22.5974 13.3597 23.0399 13.1827 23.4631 12.9641ZM15.2566 17.0166L15.2539 17.0134L15.2551 17.0119L15.2566 17.0166ZM15.2539 17.0134L15.1911 16.9381C15.1249 17.0031 15.0509 17.0598 14.9709 17.1069C14.7223 17.2523 14.443 17.3378 14.1553 17.3566C13.7577 17.3967 13.356 17.3624 12.9711 17.2553C12.3653 17.0416 11.7796 16.7752 11.2208 16.4592C10.596 16.1125 9.86084 16.0185 9.16818 16.197C8.75169 16.3243 8.36344 16.5295 8.02422 16.8015C7.82253 16.9543 7.62803 17.1213 7.43417 17.2878C7.34802 17.3618 7.262 17.4357 7.17553 17.5081L7.02553 17.6345L7.08474 17.7091C7.16112 17.6629 7.24021 17.6212 7.32158 17.5843C7.60646 17.4664 7.90895 17.3961 8.21685 17.3762C9.03703 17.3145 9.85398 17.5315 10.534 17.9918C10.9547 18.318 11.4566 18.5245 11.9861 18.5891C12.5156 18.6537 13.0528 18.5739 13.5403 18.3584C13.966 18.1583 14.3597 17.8969 14.7087 17.5827C14.9065 17.4088 15.0889 17.2183 15.2539 17.0134ZM19.3729 23.6891L19.3698 23.6857L19.3702 23.6852L19.3729 23.6891ZM19.3698 23.6857L19.3008 23.6106C19.2281 23.676 19.1467 23.7329 19.0585 23.7802C18.7849 23.9251 18.4778 24.0106 18.1614 24.0298C17.724 24.0693 17.2823 24.035 16.8588 23.9285C16.1925 23.7145 15.5483 23.4481 14.9334 23.1324C14.2463 22.7852 13.4374 22.6913 12.6755 22.8702C12.2172 22.9972 11.7901 23.2024 11.4172 23.4747C11.1956 23.6267 10.9819 23.7938 10.769 23.9602C10.6739 24.0345 10.579 24.1087 10.4836 24.1813L10.3186 24.3078L10.3829 24.3823C10.4668 24.3357 10.5538 24.2937 10.6434 24.2567C10.9568 24.1389 11.2895 24.0689 11.6282 24.0494C12.5303 23.9879 13.4288 24.2046 14.1771 24.6642C14.6397 24.9906 15.1918 25.1972 15.7743 25.2619C16.3567 25.3266 16.9477 25.247 17.484 25.0316C17.9521 24.8313 18.3852 24.57 18.7693 24.2559C18.9872 24.0818 19.1881 23.891 19.3698 23.6857Z" fill="white"/>
</svg>
